Results
version=1
nRows=4
nColumns=211
inDegrees=yes
endheader
time	/jointset/ground_platform/platform_rx/value	/jointset/ground_platform/platform_rx/speed	/jointset/ground_platform/platform_ry/value	/jointset/ground_platform/platform_ry/speed	/jointset/ground_platform/platform_rz/value	/jointset/ground_platform/platform_rz/speed	/jointset/ground_platform/platform_ty/value	/jointset/ground_platform/platform_ty/speed	/jointset/ground_pelvis/pelvis_tilt/value	/jointset/ground_pelvis/pelvis_tilt/speed	/jointset/ground_pelvis/pelvis_list/value	/jointset/ground_pelvis/pelvis_list/speed	/jointset/ground_pelvis/pelvis_rotation/value	/jointset/ground_pelvis/pelvis_rotation/speed	/jointset/ground_pelvis/pelvis_tx/value	/jointset/ground_pelvis/pelvis_tx/speed	/jointset/ground_pelvis/pelvis_ty/value	/jointset/ground_pelvis/pelvis_ty/speed	/jointset/ground_pelvis/pelvis_tz/value	/jointset/ground_pelvis/pelvis_tz/speed	/jointset/hip_r/hip_flexion_r/value	/jointset/hip_r/hip_flexion_r/speed	/jointset/hip_r/hip_adduction_r/value	/jointset/hip_r/hip_adduction_r/speed	/jointset/hip_r/hip_rotation_r/value	/jointset/hip_r/hip_rotation_r/speed	/jointset/walker_knee_r/knee_angle_r/value	/jointset/walker_knee_r/knee_angle_r/speed	/jointset/patellofemoral_r/knee_angle_r_beta/value	/jointset/patellofemoral_r/knee_angle_r_beta/speed	/jointset/ankle_r/ankle_angle_r/value	/jointset/ankle_r/ankle_angle_r/speed	/jointset/subtalar_r/subtalar_angle_r/value	/jointset/subtalar_r/subtalar_angle_r/speed	/jointset/mtp_r/mtp_angle_r/value	/jointset/mtp_r/mtp_angle_r/speed	/jointset/hip_l/hip_flexion_l/value	/jointset/hip_l/hip_flexion_l/speed	/jointset/hip_l/hip_adduction_l/value	/jointset/hip_l/hip_adduction_l/speed	/jointset/hip_l/hip_rotation_l/value	/jointset/hip_l/hip_rotation_l/speed	/jointset/walker_knee_l/knee_angle_l/value	/jointset/walker_knee_l/knee_angle_l/speed	/jointset/patellofemoral_l/knee_angle_l_beta/value	/jointset/patellofemoral_l/knee_angle_l_beta/speed	/jointset/socket/socket_flexion/value	/jointset/socket/socket_flexion/speed	/jointset/socket/socket_adduction/value	/jointset/socket/socket_adduction/speed	/jointset/socket/socket_rotation/value	/jointset/socket/socket_rotation/speed	/jointset/socket/socket_tx/value	/jointset/socket/socket_tx/speed	/jointset/socket/socket_ty/value	/jointset/socket/socket_ty/speed	/jointset/socket/socket_tz/value	/jointset/socket/socket_tz/speed	/jointset/pros_ankle/pros_ankle_rx/value	/jointset/pros_ankle/pros_ankle_rx/speed	/jointset/pros_ankle/pros_ankle_ry/value	/jointset/pros_ankle/pros_ankle_ry/speed	/jointset/pros_ankle/pros_ankle_rz/value	/jointset/pros_ankle/pros_ankle_rz/speed	/jointset/pros_ankle/pros_ankle_tx/value	/jointset/pros_ankle/pros_ankle_tx/speed	/jointset/pros_ankle/pros_ankle_ty/value	/jointset/pros_ankle/pros_ankle_ty/speed	/jointset/pros_ankle/pros_ankle_tz/value	/jointset/pros_ankle/pros_ankle_tz/speed	/jointset/foot_flex/foot_flex/value	/jointset/foot_flex/foot_flex/speed	/jointset/back/lumbar_extension/value	/jointset/back/lumbar_extension/speed	/jointset/back/lumbar_bending/value	/jointset/back/lumbar_bending/speed	/jointset/back/lumbar_rotation/value	/jointset/back/lumbar_rotation/speed	/jointset/acromial_r/arm_flex_r/value	/jointset/acromial_r/arm_flex_r/speed	/jointset/acromial_r/arm_add_r/value	/jointset/acromial_r/arm_add_r/speed	/jointset/acromial_r/arm_rot_r/value	/jointset/acromial_r/arm_rot_r/speed	/jointset/elbow_r/elbow_flex_r/value	/jointset/elbow_r/elbow_flex_r/speed	/jointset/radioulnar_r/pro_sup_r/value	/jointset/radioulnar_r/pro_sup_r/speed	/jointset/radius_hand_r/wrist_flex_r/value	/jointset/radius_hand_r/wrist_flex_r/speed	/jointset/radius_hand_r/wrist_dev_r/value	/jointset/radius_hand_r/wrist_dev_r/speed	/jointset/acromial_l/arm_flex_l/value	/jointset/acromial_l/arm_flex_l/speed	/jointset/acromial_l/arm_add_l/value	/jointset/acromial_l/arm_add_l/speed	/jointset/acromial_l/arm_rot_l/value	/jointset/acromial_l/arm_rot_l/speed	/jointset/elbow_l/elbow_flex_l/value	/jointset/elbow_l/elbow_flex_l/speed	/jointset/radioulnar_l/pro_sup_l/value	/jointset/radioulnar_l/pro_sup_l/speed	/jointset/radius_hand_l/wrist_flex_l/value	/jointset/radius_hand_l/wrist_flex_l/speed	/jointset/radius_hand_l/wrist_dev_l/value	/jointset/radius_hand_l/wrist_dev_l/speed	/forceset/addbrev_r/activation	/forceset/addlong_r/activation	/forceset/addlong_r/fiber_length	/forceset/addmagDist_r/activation	/forceset/addmagIsch_r/activation	/forceset/addmagIsch_r/fiber_length	/forceset/addmagMid_r/activation	/forceset/addmagProx_r/activation	/forceset/bflh_r/activation	/forceset/bflh_r/fiber_length	/forceset/bfsh_r/activation	/forceset/edl_r/activation	/forceset/edl_r/fiber_length	/forceset/ehl_r/activation	/forceset/ehl_r/fiber_length	/forceset/fdl_r/activation	/forceset/fdl_r/fiber_length	/forceset/fhl_r/activation	/forceset/fhl_r/fiber_length	/forceset/gaslat_r/activation	/forceset/gaslat_r/fiber_length	/forceset/gasmed_r/activation	/forceset/gasmed_r/fiber_length	/forceset/glmax1_r/activation	/forceset/glmax2_r/activation	/forceset/glmax3_r/activation	/forceset/glmed1_r/activation	/forceset/glmed2_r/activation	/forceset/glmed3_r/activation	/forceset/glmin1_r/activation	/forceset/glmin2_r/activation	/forceset/glmin3_r/activation	/forceset/glmin3_r/fiber_length	/forceset/grac_r/activation	/forceset/iliacus_r/activation	/forceset/perbrev_r/activation	/forceset/perbrev_r/fiber_length	/forceset/perlong_r/activation	/forceset/perlong_r/fiber_length	/forceset/piri_r/activation	/forceset/piri_r/fiber_length	/forceset/psoas_r/activation	/forceset/recfem_r/activation	/forceset/recfem_r/fiber_length	/forceset/sart_r/activation	/forceset/semimem_r/activation	/forceset/semimem_r/fiber_length	/forceset/semiten_r/activation	/forceset/semiten_r/fiber_length	/forceset/soleus_r/activation	/forceset/soleus_r/fiber_length	/forceset/tfl_r/activation	/forceset/tfl_r/fiber_length	/forceset/tibant_r/activation	/forceset/tibant_r/fiber_length	/forceset/tibpost_r/activation	/forceset/tibpost_r/fiber_length	/forceset/vasint_r/activation	/forceset/vasint_r/fiber_length	/forceset/vaslat_r/activation	/forceset/vaslat_r/fiber_length	/forceset/vasmed_r/activation	/forceset/vasmed_r/fiber_length	/forceset/addbrev_l/activation	/forceset/addlong_l/activation	/forceset/addlong_l/fiber_length	/forceset/addmagDist_l/activation	/forceset/addmagIsch_l/activation	/forceset/addmagIsch_l/fiber_length	/forceset/addmagMid_l/activation	/forceset/addmagProx_l/activation	/forceset/bflh_l/activation	/forceset/bflh_l/fiber_length	/forceset/bfsh_l/activation	/forceset/glmax1_l/activation	/forceset/glmax2_l/activation	/forceset/glmax3_l/activation	/forceset/glmed1_l/activation	/forceset/glmed2_l/activation	/forceset/glmed3_l/activation	/forceset/glmin1_l/activation	/forceset/glmin2_l/activation	/forceset/glmin3_l/activation	/forceset/glmin3_l/fiber_length	/forceset/grac_l/activation	/forceset/iliacus_l/activation	/forceset/piri_l/activation	/forceset/piri_l/fiber_length	/forceset/psoas_l/activation	/forceset/recfem_l/activation	/forceset/recfem_l/fiber_length	/forceset/sart_l/activation	/forceset/semimem_l/activation	/forceset/semimem_l/fiber_length	/forceset/semiten_l/activation	/forceset/semiten_l/fiber_length	/forceset/tfl_l/activation	/forceset/tfl_l/fiber_length	/forceset/vasint_l/activation	/forceset/vasint_l/fiber_length	/forceset/vaslat_l/activation	/forceset/vaslat_l/fiber_length	/forceset/vasmed_l/activation	/forceset/vasmed_l/fiber_length
      0.48994326	     20.00000000	      0.00000000	      0.00000000	      0.00000000	      0.00000000	     -0.00000000	      0.25000000	      0.00000000	      5.37075341	      1.54312838	     -1.19236552	    -10.11645417	      1.14023282	      4.50246303	      0.00706803	      0.01807631	      0.65591905	     -4.83228354	     -0.00414798	     -0.01225447	    -12.13600158	    -14.97115740	     13.51427720	     53.34930579	    -42.95767448	    -39.05416941	    -25.19814710	    -72.61495366	     -0.43979063	     -1.26737003	    -23.57228245	      2.35130092	      0.00000000	      0.00000000	      0.00000000	      0.00000000	    -14.99245438	    -28.61129071	     15.92590268	     46.51791964	    -40.99614566	    -11.11647972	    -51.48387078	   -140.79901152	     -0.89856306	     -2.45740633	    -27.32094515	    -58.19586247	     24.58058548	     90.62552064	    -48.41022067	    -26.78646331	     -0.00000000	     -0.00000000	     -0.06482338	     -0.34385514	      0.00000000	     -0.00000000	      0.00000000	      0.00000000	      0.00000000	      0.00000000	     -0.00000000	     -0.00000000	      0.00000000	      0.00000000	      0.00000000	      0.00000000	      0.00000000	     -0.00000000	      1.29456083	    -23.09237669	     -5.41145102	      0.46040748	      1.72307176	     12.57835991	     -0.94229259	     -3.15514049	      0.10406277	     -2.49541747	     -0.57741679	     -2.91571451	     -0.03546003	     -0.17347962	     -0.31771797	     -0.23406246	      0.27347006	      1.05987283	     -0.00000000	      0.00000000	      0.00000000	      0.00000000	      0.20792273	     -1.98905666	      0.60172952	      2.83356814	      0.18179033	      0.91430868	     -0.43133181	     -0.78714863	     -0.00997549	     -0.34808580	     -0.00000000	      0.00000000	      0.00000000	      0.00000000	     -0.05308019	     -0.05308019	      0.11276659	     -0.05308019	     -0.05308019	      0.11532343	     -0.05308019	     -0.05308019	     -0.05308019	      0.08622284	     -0.05308019	     -0.05308019	      0.08175252	     -0.05308019	      0.09151247	     -0.05308019	      0.04158392	     -0.05308019	      0.04517921	     -0.05308019	      0.05703347	     -0.05308019	      0.03708691	     -0.05308019	     -0.05308019	     -0.05308019	     -0.05308019	     -0.05308019	     -0.05308019	     -0.05308019	     -0.05308019	     -0.05308019	      0.02656600	     -0.05308019	     -0.05308019	     -0.05308019	      0.04591934	     -0.05308019	      0.05050064	     -0.05308019	      0.00788079	     -0.05308019	     -0.05308019	      0.05285040	     -0.05308019	     -0.05308019	      0.06812915	     -0.05308019	      0.21367018	     -0.05308019	      0.03218475	     -0.05308019	      0.10501959	     -0.05308019	      0.08144015	     -0.05308019	      0.03508909	     -0.05308019	      0.05910788	     -0.05308019	      0.06219833	     -0.05308019	      0.06416256	     -0.05308019	     -0.05308019	      0.11265779	     -0.05308019	     -0.05308019	      0.11305232	     -0.05308019	     -0.05308019	     -0.05308019	      0.09011456	     -0.05308019	     -0.05308019	     -0.05308019	     -0.05308019	     -0.05308019	     -0.05308019	     -0.05308019	     -0.05308019	     -0.05308019	     -0.05308019	      0.02615639	     -0.05308019	     -0.05308019	     -0.05308019	      0.00784407	     -0.05308019	     -0.05308019	      0.03253610	     -0.05308019	     -0.05308019	      0.07235583	     -0.05308019	      0.21890269	     -0.05308019	      0.09920506	     -0.05308019	      0.03775988	     -0.05308019	      0.04717516	     -0.05308019	      0.05075931
      0.49138623	     20.00000000	      0.00000000	      0.00000000	      0.00000000	      0.00000000	     -0.00000000	      0.25000000	      0.00000000	      5.37278140	      1.26768389	     -1.20700943	    -10.18054362	      1.14670561	      4.46891022	      0.00709416	      0.01813581	      0.64893558	     -4.84696879	     -0.00416564	     -0.01222726	    -12.15740638	    -14.69657455	     13.59126576	     53.35862745	    -43.01351814	    -38.34647878	    -25.30289695	    -72.57061238	     -0.44161886	     -1.26659613	    -23.56882463	      2.44139662	      0.00000000	      0.00000000	      0.00000000	      0.00000000	    -15.03357758	    -28.38648494	     15.99299926	     46.47914323	    -41.01171997	    -10.47049685	    -51.68725328	   -141.09446248	     -0.90211275	     -2.46256293	    -27.40534902	    -58.79168576	     24.71179407	     91.23344539	    -48.44813876	    -25.76825600	     -0.00000000	     -0.00000000	     -0.06532090	     -0.34572588	      0.00000000	     -0.00000000	      0.00000000	      0.00000000	      0.00000000	      0.00000000	     -0.00000000	     -0.00000000	      0.00000000	      0.00000000	      0.00000000	      0.00000000	      0.00000000	     -0.00000000	      1.26089550	    -23.57015354	     -5.41055156	      0.78633829	      1.74127133	     12.64687472	     -0.94682094	     -3.12121844	      0.10040975	     -2.56779648	     -0.58163926	     -2.93675705	     -0.03571228	     -0.17614623	     -0.31803460	     -0.20476716	      0.27499911	      1.05942456	     -0.00000000	      0.00000000	      0.00000000	      0.00000000	      0.20500277	     -2.05811226	      0.60583011	      2.84997781	      0.18311346	      0.91959747	     -0.43244901	     -0.76130258	     -0.01048482	     -0.35787177	     -0.00000000	      0.00000000	      0.00000000	      0.00000000	     -0.05326598	     -0.05326598	      0.11271359	     -0.05326598	     -0.05326598	      0.11529083	     -0.05326598	     -0.05326598	     -0.05326598	      0.08623499	     -0.05326598	     -0.05326598	      0.08175096	     -0.05326598	      0.09151082	     -0.05326598	      0.04158454	     -0.05326598	      0.04518016	     -0.05326598	      0.05704140	     -0.05326598	      0.03705950	     -0.05326598	     -0.05326598	     -0.05326598	     -0.05326598	     -0.05326598	     -0.05326598	     -0.05326598	     -0.05326598	     -0.05326598	      0.02655831	     -0.05326598	     -0.05326598	     -0.05326598	      0.04591976	     -0.05326598	      0.05050121	     -0.05326598	      0.00787482	     -0.05326598	     -0.05326598	      0.05278409	     -0.05326598	     -0.05326598	      0.06815249	     -0.05326598	      0.21369456	     -0.05326598	      0.03218691	     -0.05326598	      0.10504385	     -0.05326598	      0.08143826	     -0.05326598	      0.03508975	     -0.05326598	      0.05901914	     -0.05326598	      0.06213077	     -0.05326598	      0.06409840	     -0.05326598	     -0.05326598	      0.11262773	     -0.05326598	     -0.05326598	      0.11301626	     -0.05326598	     -0.05326598	     -0.05326598	      0.09009965	     -0.05326598	     -0.05326598	     -0.05326598	     -0.05326598	     -0.05326598	     -0.05326598	     -0.05326598	     -0.05326598	     -0.05326598	     -0.05326598	      0.02614490	     -0.05326598	     -0.05326598	     -0.05326598	      0.00783863	     -0.05326598	     -0.05326598	      0.03241469	     -0.05326598	     -0.05326598	      0.07236386	     -0.05326598	      0.21890936	     -0.05326598	      0.09918949	     -0.05326598	      0.03761918	     -0.05326598	      0.04708590	     -0.05326598	      0.05069020
      0.49282921	     20.00000000	      0.00000000	      0.00000000	      0.00000000	      0.00000000	     -0.00000000	      0.25000000	      0.00000000	      5.37441181	      0.99207818	     -1.22174638	    -10.24537812	      1.15312987	      4.43521763	      0.00712037	      0.01819579	      0.64193092	     -4.86165379	     -0.00418327	     -0.01219921	    -12.17841573	    -14.42308531	     13.66826735	     53.36734166	    -43.06834094	    -37.63930275	    -25.40758211	    -72.52542472	     -0.44344596	     -1.26580745	    -23.56523778	      2.52922512	      0.00000000	      0.00000000	      0.00000000	      0.00000000	    -15.07437584	    -28.16083346	     16.06003786	     46.43748938	    -41.02636479	     -9.82816926	    -51.89105866	   -141.38439658	     -0.90566983	     -2.46762323	    -27.49061362	    -59.38797848	     24.84388089	     91.84246655	    -48.48458531	    -24.74693249	     -0.00000000	     -0.00000000	     -0.06582113	     -0.34759575	      0.00000000	     -0.00000000	      0.00000000	      0.00000000	      0.00000000	     -0.00000000	     -0.00000000	     -0.00000000	      0.00000000	      0.00000000	      0.00000000	      0.00000000	      0.00000000	     -0.00000000	      1.22653551	    -24.05497582	     -5.40918158	      1.11251249	      1.75957029	     12.71608238	     -0.95130036	     -3.08735081	      0.09665219	     -2.64030422	     -0.58589215	     -2.95787391	     -0.03596839	     -0.17883951	     -0.31830889	     -0.17539223	      0.27652750	      1.05897549	     -0.00000000	      0.00000000	      0.00000000	      0.00000000	      0.20198307	     -2.12727940	      0.60995443	      2.86645012	      0.18444424	      0.92490513	     -0.43352886	     -0.73539465	     -0.01100830	     -0.36769118	     -0.00000000	      0.00000000	      0.00000000	      0.00000000	     -0.05345176	     -0.05345176	      0.11266019	     -0.05345176	     -0.05345176	      0.11525847	     -0.05345176	     -0.05345176	     -0.05345176	      0.08624742	     -0.05345176	     -0.05345176	      0.08174934	     -0.05345176	      0.09150911	     -0.05345176	      0.04158518	     -0.05345176	      0.04518114	     -0.05345176	      0.05704921	     -0.05345176	      0.03703197	     -0.05345176	     -0.05345176	     -0.05345176	     -0.05345176	     -0.05345176	     -0.05345176	     -0.05345176	     -0.05345176	     -0.05345176	      0.02655118	     -0.05345176	     -0.05345176	     -0.05345176	      0.04592020	     -0.05345176	      0.05050180	     -0.05345176	      0.00786893	     -0.05345176	     -0.05345176	      0.05271755	     -0.05345176	     -0.05345176	      0.06817602	     -0.05345176	      0.21371911	     -0.05345176	      0.03218912	     -0.05345176	      0.10506801	     -0.05345176	      0.08143630	     -0.05345176	      0.03509042	     -0.05345176	      0.05893044	     -0.05345176	      0.06206327	     -0.05345176	      0.06403432	     -0.05345176	     -0.05345176	      0.11259741	     -0.05345176	     -0.05345176	      0.11298042	     -0.05345176	     -0.05345176	     -0.05345176	      0.09008461	     -0.05345176	     -0.05345176	     -0.05345176	     -0.05345176	     -0.05345176	     -0.05345176	     -0.05345176	     -0.05345176	     -0.05345176	     -0.05345176	      0.02613395	     -0.05345176	     -0.05345176	     -0.05345176	      0.00783328	     -0.05345176	     -0.05345176	      0.03229341	     -0.05345176	     -0.05345176	      0.07237196	     -0.05345176	      0.21891616	     -0.05345176	      0.09917372	     -0.05345176	      0.03747937	     -0.05345176	      0.04699702	     -0.05345176	      0.05061801
      0.49488989	     20.00000000	      0.00000000	      0.00000000	      0.00000000	      0.00000000	     -0.00000000	      0.25000000	      0.00000000	      5.37605046	      0.59834836	     -1.24295592	    -10.34004164	      1.16221936	      4.38656182	      0.00715796	      0.01828333	      0.63189101	     -4.88262562	     -0.00420836	     -0.01215772	    -12.20773654	    -14.03495304	     13.77825292	     53.37971218	    -43.14486325	    -36.63004630	    -25.55696649	    -72.46050294	     -0.44605321	     -1.26467435	    -23.55990241	      2.64500530	      0.00000000	      0.00000000	      0.00000000	      0.00000000	    -15.13207481	    -27.83933929	     16.15566580	     46.37381601	    -41.04567747	     -8.91704654	    -52.18283752	   -141.80354264	     -0.91076233	     -2.47493871	    -27.61388620	    -60.25787560	     25.03404111	     92.71974406	    -48.53407216	    -23.28143059	     -0.00000000	     -0.00000000	     -0.06654018	     -0.35028482	      0.00000000	     -0.00000000	      0.00000000	      0.00000000	      0.00000000	      0.00000000	     -0.00000000	     -0.00000000	      0.00000000	      0.00000000	      0.00000000	      0.00000000	      0.00000000	     -0.00000000	      1.17623866	    -24.76404855	     -5.40640874	      1.57870225	      1.78587765	     12.81705768	     -0.95761228	     -3.03868065	      0.09110436	     -2.74422666	     -0.59201877	     -2.98841758	     -0.03634095	     -0.18276478	     -0.31862696	     -0.13329143	      0.27870911	      1.05841045	     -0.00000000	      0.00000000	      0.00000000	      0.00000000	      0.19749740	     -2.22635620	      0.61588580	      2.89033444	      0.18635807	      0.93258450	     -0.43500609	     -0.69832464	     -0.01178054	     -0.38182303	     -0.00000000	      0.00000000	      0.00000000	      0.00000000	     -0.05371707	     -0.05371707	      0.11258325	     -0.05371707	     -0.05371707	      0.11521270	     -0.05371707	     -0.05371707	     -0.05371707	      0.08626564	     -0.05371707	     -0.05371707	      0.08174693	     -0.05371707	      0.09150657	     -0.05371707	      0.04158611	     -0.05371707	      0.04518258	     -0.05371707	      0.05706011	     -0.05371707	      0.03699251	     -0.05371707	     -0.05371707	     -0.05371707	     -0.05371707	     -0.05371707	     -0.05371707	     -0.05371707	     -0.05371707	     -0.05371707	      0.02654196	     -0.05371707	     -0.05371707	     -0.05371707	      0.04592085	     -0.05371707	      0.05050266	     -0.05371707	      0.00786068	     -0.05371707	     -0.05371707	      0.05262215	     -0.05371707	     -0.05371707	      0.06820993	     -0.05371707	      0.21375451	     -0.05371707	      0.03219242	     -0.05371707	      0.10510231	     -0.05371707	      0.08143338	     -0.05371707	      0.03509142	     -0.05371707	      0.05880385	     -0.05371707	      0.06196698	     -0.05371707	      0.06394294	     -0.05371707	     -0.05371707	      0.11255365	     -0.05371707	     -0.05371707	      0.11292967	     -0.05371707	     -0.05371707	     -0.05371707	      0.09006290	     -0.05371707	     -0.05371707	     -0.05371707	     -0.05371707	     -0.05371707	     -0.05371707	     -0.05371707	     -0.05371707	     -0.05371707	     -0.05371707	      0.02611926	     -0.05371707	     -0.05371707	     -0.05371707	      0.00782576	     -0.05371707	     -0.05371707	      0.03212043	     -0.05371707	     -0.05371707	      0.07238366	     -0.05371707	      0.21892602	     -0.05371707	      0.09915083	     -0.05371707	      0.03728147	     -0.05371707	      0.04687083	     -0.05371707	      0.05051751
